<svg width="24" height="24" viewBox="0 0 24 24" fill="none" xmlns="http://www.w3.org/2000/svg">
<g clip-path="url(#clip0_6652_69066)">
<rect x="0.230769" y="0.230769" width="23.5385" height="23.5385" rx="11.7692" fill="#929292"/>
<rect x="0.230769" y="0.230769" width="23.5385" height="23.5385" rx="11.7692" stroke="#F4F4F4" stroke-width="0.461538"/>
<path d="M9.52347 5.45362L9.52347 7.75362H8.10808C7.71724 7.75362 7.40039 8.07047 7.40039 8.46132V13.4152C7.40039 14.9786 8.66777 16.2459 10.2312 16.2459H13.7696C15.333 16.2459 16.6004 14.9786 16.6004 13.4152V8.46131C16.6004 8.07047 16.2836 7.75362 15.8927 7.75362H14.4773V5.45362C14.4773 5.16049 14.2397 4.92285 13.9465 4.92285C13.6534 4.92285 13.4158 5.16049 13.4158 5.45362V7.75362L10.585 7.75362V5.45362C10.585 5.16049 10.3474 4.92285 10.0542 4.92285C9.7611 4.92285 9.52347 5.16049 9.52347 5.45362ZM9.87732 18.369C9.87732 18.7599 10.1942 19.0767 10.585 19.0767H13.4158C13.8066 19.0767 14.1235 18.7599 14.1235 18.369V17.1306C14.1235 17.0328 14.0443 16.9536 13.9465 16.9536H10.0542C9.95653 16.9536 9.87732 17.0328 9.87732 17.1306L9.87732 18.369Z" fill="white"/>
</g>
<defs>
<clipPath id="clip0_6652_69066">
<rect width="24" height="24" fill="white"/>
</clipPath>
</defs>
</svg>
