<svg width="24" height="24" viewBox="0 0 24 24" fill="none" xmlns="http://www.w3.org/2000/svg">
<g clip-path="url(#clip0_6652_69068)">
<rect x="0.230769" y="0.230769" width="23.5385" height="23.5385" rx="11.7692" fill="#FF3A3A"/>
<rect x="0.230769" y="0.230769" width="23.5385" height="23.5385" rx="11.7692" stroke="#F4F4F4" stroke-width="0.461538"/>
<path fill-rule="evenodd" clip-rule="evenodd" d="M12.334 10.4486C12.334 10.5953 12.4533 10.7143 12.6005 10.7143H16.5106C16.7162 10.7143 16.8443 10.9366 16.7409 11.1138L12.1684 18.943C12.0315 19.1775 11.6717 19.0806 11.6717 18.8093V13.5524C11.6717 13.4057 11.5524 13.2867 11.4053 13.2867H7.49048C7.28489 13.2867 7.15676 13.0643 7.26027 12.8872L11.8374 5.05402C11.9743 4.81961 12.334 4.91651 12.334 5.18781V10.4486Z" fill="white"/>
</g>
<defs>
<clipPath id="clip0_6652_69068">
<rect width="24" height="24" fill="white"/>
</clipPath>
</defs>
</svg>
